<mxfile host="app.diagrams.net" modified="2022-03-09T05:01:50.373Z" agent="5.0 (Windows NT 10.0; Win64; x64) AppleWebKit/537.36 (KHTML, like Gecko) Chrome/98.0.4758.102 Safari/537.36" etag="BUxXYeCY7aWSFnWw0buJ" version="16.6.6" type="github">
  <diagram name="Page-1" id="c7488fd3-1785-93aa-aadb-54a6760d102a">
    <mxGraphModel dx="889" dy="496" grid="1" gridSize="10" guides="1" tooltips="1" connect="1" arrows="1" fold="1" page="0" pageScale="1" pageWidth="1100" pageHeight="850" background="none" math="0" shadow="0">
      <root>
        <mxCell id="0" />
        <mxCell id="1" parent="0" />
        <mxCell id="4sP-tAjosWrq_yU9jU7--17" style="edgeStyle=orthogonalEdgeStyle;rounded=0;orthogonalLoop=1;jettySize=auto;html=1;" edge="1" parent="1" source="4sP-tAjosWrq_yU9jU7--20" target="4sP-tAjosWrq_yU9jU7--3">
          <mxGeometry relative="1" as="geometry">
            <mxPoint x="280" y="169.9999999999999" as="sourcePoint" />
          </mxGeometry>
        </mxCell>
        <mxCell id="4sP-tAjosWrq_yU9jU7--3" value="Existing&lt;br&gt;Account" style="strokeWidth=2;html=1;shape=mxgraph.flowchart.decision;whiteSpace=wrap;" vertex="1" parent="1">
          <mxGeometry x="400" y="120" width="100" height="100" as="geometry" />
        </mxCell>
        <mxCell id="4sP-tAjosWrq_yU9jU7--32" style="edgeStyle=orthogonalEdgeStyle;rounded=0;orthogonalLoop=1;jettySize=auto;html=1;" edge="1" parent="1" source="4sP-tAjosWrq_yU9jU7--5" target="4sP-tAjosWrq_yU9jU7--31">
          <mxGeometry relative="1" as="geometry" />
        </mxCell>
        <mxCell id="4sP-tAjosWrq_yU9jU7--5" value="User Info" style="shape=parallelogram;html=1;strokeWidth=2;perimeter=parallelogramPerimeter;whiteSpace=wrap;rounded=1;arcSize=12;size=0.23;" vertex="1" parent="1">
          <mxGeometry x="670" y="140" width="100" height="60" as="geometry" />
        </mxCell>
        <mxCell id="4sP-tAjosWrq_yU9jU7--7" value="" style="endArrow=classic;html=1;rounded=0;" edge="1" parent="1" source="4sP-tAjosWrq_yU9jU7--3" target="4sP-tAjosWrq_yU9jU7--5">
          <mxGeometry relative="1" as="geometry">
            <mxPoint x="500" y="170" as="sourcePoint" />
            <mxPoint x="660" y="170" as="targetPoint" />
          </mxGeometry>
        </mxCell>
        <mxCell id="4sP-tAjosWrq_yU9jU7--9" value="No" style="edgeLabel;resizable=0;html=1;align=left;verticalAlign=bottom;" connectable="0" vertex="1" parent="4sP-tAjosWrq_yU9jU7--7">
          <mxGeometry x="-1" relative="1" as="geometry" />
        </mxCell>
        <mxCell id="4sP-tAjosWrq_yU9jU7--15" value="" style="group" vertex="1" connectable="0" parent="1">
          <mxGeometry x="450" y="239.9999999999999" height="60.000000000000114" as="geometry" />
        </mxCell>
        <mxCell id="4sP-tAjosWrq_yU9jU7--14" value="Yes" style="edgeLabel;resizable=0;html=1;align=left;verticalAlign=bottom;" connectable="0" vertex="1" parent="4sP-tAjosWrq_yU9jU7--15">
          <mxGeometry as="geometry" />
        </mxCell>
        <mxCell id="4sP-tAjosWrq_yU9jU7--19" style="edgeStyle=orthogonalEdgeStyle;rounded=0;orthogonalLoop=1;jettySize=auto;html=1;" edge="1" parent="1" source="4sP-tAjosWrq_yU9jU7--16" target="4sP-tAjosWrq_yU9jU7--18">
          <mxGeometry relative="1" as="geometry" />
        </mxCell>
        <mxCell id="4sP-tAjosWrq_yU9jU7--16" value="Login&lt;br&gt;Credentials" style="shape=parallelogram;html=1;strokeWidth=2;perimeter=parallelogramPerimeter;whiteSpace=wrap;rounded=1;arcSize=12;size=0.23;" vertex="1" parent="1">
          <mxGeometry x="530" y="270" width="100" height="60" as="geometry" />
        </mxCell>
        <mxCell id="4sP-tAjosWrq_yU9jU7--13" style="edgeStyle=orthogonalEdgeStyle;rounded=0;orthogonalLoop=1;jettySize=auto;html=1;" edge="1" parent="1" source="4sP-tAjosWrq_yU9jU7--3" target="4sP-tAjosWrq_yU9jU7--16">
          <mxGeometry relative="1" as="geometry">
            <mxPoint x="530" y="299.9999999999999" as="targetPoint" />
            <Array as="points">
              <mxPoint x="450" y="290" />
            </Array>
          </mxGeometry>
        </mxCell>
        <mxCell id="4sP-tAjosWrq_yU9jU7--22" style="edgeStyle=orthogonalEdgeStyle;rounded=0;orthogonalLoop=1;jettySize=auto;html=1;" edge="1" parent="1" source="4sP-tAjosWrq_yU9jU7--18" target="4sP-tAjosWrq_yU9jU7--45">
          <mxGeometry relative="1" as="geometry">
            <Array as="points">
              <mxPoint x="580" y="530" />
              <mxPoint x="580" y="530" />
            </Array>
          </mxGeometry>
        </mxCell>
        <mxCell id="4sP-tAjosWrq_yU9jU7--24" style="edgeStyle=orthogonalEdgeStyle;rounded=0;orthogonalLoop=1;jettySize=auto;html=1;" edge="1" parent="1" source="4sP-tAjosWrq_yU9jU7--18" target="4sP-tAjosWrq_yU9jU7--16">
          <mxGeometry relative="1" as="geometry">
            <Array as="points">
              <mxPoint x="480" y="460" />
              <mxPoint x="480" y="310" />
            </Array>
          </mxGeometry>
        </mxCell>
        <mxCell id="4sP-tAjosWrq_yU9jU7--28" style="edgeStyle=orthogonalEdgeStyle;rounded=0;orthogonalLoop=1;jettySize=auto;html=1;" edge="1" parent="1" source="4sP-tAjosWrq_yU9jU7--18" target="4sP-tAjosWrq_yU9jU7--27">
          <mxGeometry relative="1" as="geometry">
            <Array as="points">
              <mxPoint x="750" y="460" />
            </Array>
          </mxGeometry>
        </mxCell>
        <mxCell id="4sP-tAjosWrq_yU9jU7--18" value="Credentials&lt;br&gt;Valid?" style="strokeWidth=2;html=1;shape=mxgraph.flowchart.decision;whiteSpace=wrap;" vertex="1" parent="1">
          <mxGeometry x="530" y="410" width="100" height="100" as="geometry" />
        </mxCell>
        <mxCell id="4sP-tAjosWrq_yU9jU7--20" value="Landing Page" style="strokeWidth=2;html=1;shape=mxgraph.flowchart.document2;whiteSpace=wrap;size=0.25;" vertex="1" parent="1">
          <mxGeometry x="170" y="140" width="100" height="60" as="geometry" />
        </mxCell>
        <mxCell id="4sP-tAjosWrq_yU9jU7--21" value="Dashboard" style="strokeWidth=2;html=1;shape=mxgraph.flowchart.document2;whiteSpace=wrap;size=0.25;" vertex="1" parent="1">
          <mxGeometry x="330" y="570" width="100" height="60" as="geometry" />
        </mxCell>
        <mxCell id="4sP-tAjosWrq_yU9jU7--23" value="Yes" style="text;html=1;align=center;verticalAlign=middle;resizable=0;points=[];autosize=1;strokeColor=none;fillColor=none;" vertex="1" parent="1">
          <mxGeometry x="570" y="510" width="40" height="20" as="geometry" />
        </mxCell>
        <mxCell id="4sP-tAjosWrq_yU9jU7--25" value="No" style="text;html=1;align=center;verticalAlign=middle;resizable=0;points=[];autosize=1;strokeColor=none;fillColor=none;" vertex="1" parent="1">
          <mxGeometry x="495" y="440" width="30" height="20" as="geometry" />
        </mxCell>
        <mxCell id="4sP-tAjosWrq_yU9jU7--30" style="edgeStyle=orthogonalEdgeStyle;rounded=0;orthogonalLoop=1;jettySize=auto;html=1;" edge="1" parent="1" source="4sP-tAjosWrq_yU9jU7--27" target="4sP-tAjosWrq_yU9jU7--16">
          <mxGeometry relative="1" as="geometry">
            <Array as="points">
              <mxPoint x="750" y="310" />
            </Array>
          </mxGeometry>
        </mxCell>
        <mxCell id="4sP-tAjosWrq_yU9jU7--55" style="rounded=0;orthogonalLoop=1;jettySize=auto;html=1;entryX=0;entryY=0.5;entryDx=0;entryDy=0;entryPerimeter=0;endArrow=none;endFill=0;dashed=1;" edge="1" parent="1" source="4sP-tAjosWrq_yU9jU7--27" target="4sP-tAjosWrq_yU9jU7--53">
          <mxGeometry relative="1" as="geometry" />
        </mxCell>
        <mxCell id="4sP-tAjosWrq_yU9jU7--27" value="Password&lt;br&gt;Reset&lt;br&gt;Process" style="rounded=1;whiteSpace=wrap;html=1;absoluteArcSize=1;arcSize=14;strokeWidth=2;" vertex="1" parent="1">
          <mxGeometry x="700" y="330" width="100" height="100" as="geometry" />
        </mxCell>
        <mxCell id="4sP-tAjosWrq_yU9jU7--29" value="Forgot Password" style="text;html=1;align=center;verticalAlign=middle;resizable=0;points=[];autosize=1;strokeColor=none;fillColor=none;" vertex="1" parent="1">
          <mxGeometry x="630" y="440" width="110" height="20" as="geometry" />
        </mxCell>
        <mxCell id="4sP-tAjosWrq_yU9jU7--36" style="edgeStyle=orthogonalEdgeStyle;rounded=0;orthogonalLoop=1;jettySize=auto;html=1;" edge="1" parent="1" source="4sP-tAjosWrq_yU9jU7--31" target="4sP-tAjosWrq_yU9jU7--34">
          <mxGeometry relative="1" as="geometry" />
        </mxCell>
        <mxCell id="4sP-tAjosWrq_yU9jU7--39" style="edgeStyle=orthogonalEdgeStyle;rounded=0;orthogonalLoop=1;jettySize=auto;html=1;" edge="1" parent="1" source="4sP-tAjosWrq_yU9jU7--31" target="4sP-tAjosWrq_yU9jU7--38">
          <mxGeometry relative="1" as="geometry">
            <Array as="points">
              <mxPoint x="1210" y="170" />
            </Array>
          </mxGeometry>
        </mxCell>
        <mxCell id="4sP-tAjosWrq_yU9jU7--31" value="Provided&lt;br&gt;Valid&lt;br&gt;Referral&lt;br&gt;Link?" style="strokeWidth=2;html=1;shape=mxgraph.flowchart.decision;whiteSpace=wrap;" vertex="1" parent="1">
          <mxGeometry x="940" y="120" width="100" height="100" as="geometry" />
        </mxCell>
        <mxCell id="4sP-tAjosWrq_yU9jU7--35" style="edgeStyle=orthogonalEdgeStyle;rounded=0;orthogonalLoop=1;jettySize=auto;html=1;" edge="1" parent="1" source="4sP-tAjosWrq_yU9jU7--34" target="4sP-tAjosWrq_yU9jU7--16">
          <mxGeometry relative="1" as="geometry">
            <Array as="points">
              <mxPoint x="880" y="350" />
              <mxPoint x="880" y="290" />
            </Array>
          </mxGeometry>
        </mxCell>
        <mxCell id="4sP-tAjosWrq_yU9jU7--34" value="Verify&lt;br&gt;Email&lt;br&gt;Process" style="rounded=1;whiteSpace=wrap;html=1;absoluteArcSize=1;arcSize=14;strokeWidth=2;" vertex="1" parent="1">
          <mxGeometry x="940" y="340" width="100" height="100" as="geometry" />
        </mxCell>
        <mxCell id="4sP-tAjosWrq_yU9jU7--37" value="Yes" style="text;html=1;align=center;verticalAlign=middle;resizable=0;points=[];autosize=1;strokeColor=none;fillColor=none;" vertex="1" parent="1">
          <mxGeometry x="980" y="220" width="40" height="20" as="geometry" />
        </mxCell>
        <mxCell id="4sP-tAjosWrq_yU9jU7--42" style="edgeStyle=orthogonalEdgeStyle;rounded=0;orthogonalLoop=1;jettySize=auto;html=1;" edge="1" parent="1" source="4sP-tAjosWrq_yU9jU7--38" target="4sP-tAjosWrq_yU9jU7--34">
          <mxGeometry relative="1" as="geometry">
            <Array as="points">
              <mxPoint x="1210" y="390" />
            </Array>
          </mxGeometry>
        </mxCell>
        <mxCell id="4sP-tAjosWrq_yU9jU7--38" value="Admin/Mod&lt;br&gt;Approval&lt;br&gt;Process" style="rounded=1;whiteSpace=wrap;html=1;absoluteArcSize=1;arcSize=14;strokeWidth=2;" vertex="1" parent="1">
          <mxGeometry x="1160" y="220" width="100" height="100" as="geometry" />
        </mxCell>
        <mxCell id="4sP-tAjosWrq_yU9jU7--40" value="No" style="text;html=1;align=center;verticalAlign=middle;resizable=0;points=[];autosize=1;strokeColor=none;fillColor=none;" vertex="1" parent="1">
          <mxGeometry x="1055" y="150" width="30" height="20" as="geometry" />
        </mxCell>
        <mxCell id="4sP-tAjosWrq_yU9jU7--44" value="Onboarding&lt;br&gt;Process" style="rounded=1;whiteSpace=wrap;html=1;absoluteArcSize=1;arcSize=14;strokeWidth=2;" vertex="1" parent="1">
          <mxGeometry x="710" y="550" width="100" height="100" as="geometry" />
        </mxCell>
        <mxCell id="4sP-tAjosWrq_yU9jU7--46" style="edgeStyle=orthogonalEdgeStyle;rounded=0;orthogonalLoop=1;jettySize=auto;html=1;" edge="1" parent="1" source="4sP-tAjosWrq_yU9jU7--45" target="4sP-tAjosWrq_yU9jU7--21">
          <mxGeometry relative="1" as="geometry" />
        </mxCell>
        <mxCell id="4sP-tAjosWrq_yU9jU7--47" style="edgeStyle=orthogonalEdgeStyle;rounded=0;orthogonalLoop=1;jettySize=auto;html=1;" edge="1" parent="1" source="4sP-tAjosWrq_yU9jU7--45" target="4sP-tAjosWrq_yU9jU7--44">
          <mxGeometry relative="1" as="geometry" />
        </mxCell>
        <mxCell id="4sP-tAjosWrq_yU9jU7--45" value="First&lt;br&gt;Time&lt;br&gt;Login?" style="strokeWidth=2;html=1;shape=mxgraph.flowchart.decision;whiteSpace=wrap;" vertex="1" parent="1">
          <mxGeometry x="530" y="550" width="100" height="100" as="geometry" />
        </mxCell>
        <mxCell id="4sP-tAjosWrq_yU9jU7--48" value="Yes" style="text;html=1;align=center;verticalAlign=middle;resizable=0;points=[];autosize=1;strokeColor=none;fillColor=none;" vertex="1" parent="1">
          <mxGeometry x="630" y="580" width="40" height="20" as="geometry" />
        </mxCell>
        <mxCell id="4sP-tAjosWrq_yU9jU7--49" value="No" style="text;html=1;align=center;verticalAlign=middle;resizable=0;points=[];autosize=1;strokeColor=none;fillColor=none;" vertex="1" parent="1">
          <mxGeometry x="490" y="580" width="30" height="20" as="geometry" />
        </mxCell>
        <mxCell id="4sP-tAjosWrq_yU9jU7--58" style="edgeStyle=none;rounded=0;orthogonalLoop=1;jettySize=auto;html=1;endArrow=classic;endFill=1;" edge="1" parent="1" source="4sP-tAjosWrq_yU9jU7--53" target="4sP-tAjosWrq_yU9jU7--56">
          <mxGeometry relative="1" as="geometry" />
        </mxCell>
        <mxCell id="4sP-tAjosWrq_yU9jU7--53" value="Password Reset Process" style="strokeWidth=2;html=1;shape=mxgraph.flowchart.terminator;whiteSpace=wrap;" vertex="1" parent="1">
          <mxGeometry x="940" y="600" width="100" height="60" as="geometry" />
        </mxCell>
        <mxCell id="4sP-tAjosWrq_yU9jU7--60" style="edgeStyle=none;rounded=0;orthogonalLoop=1;jettySize=auto;html=1;endArrow=classic;endFill=1;" edge="1" parent="1" source="4sP-tAjosWrq_yU9jU7--56" target="4sP-tAjosWrq_yU9jU7--59">
          <mxGeometry relative="1" as="geometry" />
        </mxCell>
        <mxCell id="4sP-tAjosWrq_yU9jU7--56" value="Email" style="shape=parallelogram;html=1;strokeWidth=2;perimeter=parallelogramPerimeter;whiteSpace=wrap;rounded=1;arcSize=12;size=0.23;" vertex="1" parent="1">
          <mxGeometry x="1085" y="600" width="100" height="60" as="geometry" />
        </mxCell>
        <mxCell id="4sP-tAjosWrq_yU9jU7--63" style="edgeStyle=none;rounded=0;orthogonalLoop=1;jettySize=auto;html=1;endArrow=classic;endFill=1;" edge="1" parent="1" source="4sP-tAjosWrq_yU9jU7--59" target="4sP-tAjosWrq_yU9jU7--62">
          <mxGeometry relative="1" as="geometry" />
        </mxCell>
        <mxCell id="4sP-tAjosWrq_yU9jU7--64" style="edgeStyle=orthogonalEdgeStyle;rounded=0;orthogonalLoop=1;jettySize=auto;html=1;endArrow=classic;endFill=1;" edge="1" parent="1" source="4sP-tAjosWrq_yU9jU7--59" target="4sP-tAjosWrq_yU9jU7--53">
          <mxGeometry relative="1" as="geometry">
            <Array as="points">
              <mxPoint x="1275" y="710" />
              <mxPoint x="990" y="710" />
            </Array>
          </mxGeometry>
        </mxCell>
        <mxCell id="4sP-tAjosWrq_yU9jU7--59" value="Is email for registered&lt;br&gt;user?" style="strokeWidth=2;html=1;shape=mxgraph.flowchart.decision;whiteSpace=wrap;" vertex="1" parent="1">
          <mxGeometry x="1225" y="580" width="100" height="100" as="geometry" />
        </mxCell>
        <mxCell id="4sP-tAjosWrq_yU9jU7--68" style="edgeStyle=orthogonalEdgeStyle;rounded=0;orthogonalLoop=1;jettySize=auto;html=1;endArrow=classic;endFill=1;" edge="1" parent="1" source="4sP-tAjosWrq_yU9jU7--62" target="4sP-tAjosWrq_yU9jU7--67">
          <mxGeometry relative="1" as="geometry" />
        </mxCell>
        <mxCell id="4sP-tAjosWrq_yU9jU7--62" value="Store Reset&lt;br&gt;Email&lt;br&gt;Link" style="shape=cylinder3;whiteSpace=wrap;html=1;boundedLbl=1;backgroundOutline=1;size=4;" vertex="1" parent="1">
          <mxGeometry x="1385" y="590" width="60" height="80" as="geometry" />
        </mxCell>
        <mxCell id="4sP-tAjosWrq_yU9jU7--65" value="Yes" style="text;html=1;align=center;verticalAlign=middle;resizable=0;points=[];autosize=1;strokeColor=none;fillColor=none;" vertex="1" parent="1">
          <mxGeometry x="1320" y="612" width="40" height="20" as="geometry" />
        </mxCell>
        <mxCell id="4sP-tAjosWrq_yU9jU7--66" value="No" style="text;html=1;align=center;verticalAlign=middle;resizable=0;points=[];autosize=1;strokeColor=none;fillColor=none;" vertex="1" parent="1">
          <mxGeometry x="1248" y="680" width="30" height="20" as="geometry" />
        </mxCell>
        <mxCell id="4sP-tAjosWrq_yU9jU7--71" style="edgeStyle=orthogonalEdgeStyle;rounded=0;orthogonalLoop=1;jettySize=auto;html=1;endArrow=classic;endFill=1;" edge="1" parent="1" source="4sP-tAjosWrq_yU9jU7--67" target="4sP-tAjosWrq_yU9jU7--69">
          <mxGeometry relative="1" as="geometry">
            <Array as="points">
              <mxPoint x="1630" y="630" />
              <mxPoint x="1630" y="510" />
            </Array>
          </mxGeometry>
        </mxCell>
        <mxCell id="4sP-tAjosWrq_yU9jU7--67" value="Send Link via&lt;br&gt;email" style="shape=tape;whiteSpace=wrap;html=1;strokeWidth=2;size=0.19" vertex="1" parent="1">
          <mxGeometry x="1505" y="597.5" width="100" height="65" as="geometry" />
        </mxCell>
        <mxCell id="4sP-tAjosWrq_yU9jU7--73" style="edgeStyle=orthogonalEdgeStyle;rounded=0;orthogonalLoop=1;jettySize=auto;html=1;endArrow=classic;endFill=1;" edge="1" parent="1" source="4sP-tAjosWrq_yU9jU7--69" target="4sP-tAjosWrq_yU9jU7--72">
          <mxGeometry relative="1" as="geometry" />
        </mxCell>
        <mxCell id="4sP-tAjosWrq_yU9jU7--69" value="User Click Link" style="strokeWidth=2;html=1;shape=mxgraph.flowchart.delay;whiteSpace=wrap;rotation=0;direction=west;" vertex="1" parent="1">
          <mxGeometry x="1423" y="460" width="105" height="60" as="geometry" />
        </mxCell>
        <mxCell id="4sP-tAjosWrq_yU9jU7--75" style="edgeStyle=orthogonalEdgeStyle;rounded=0;orthogonalLoop=1;jettySize=auto;html=1;endArrow=classic;endFill=1;" edge="1" parent="1" source="4sP-tAjosWrq_yU9jU7--72" target="4sP-tAjosWrq_yU9jU7--74">
          <mxGeometry relative="1" as="geometry" />
        </mxCell>
        <mxCell id="4sP-tAjosWrq_yU9jU7--84" style="edgeStyle=orthogonalEdgeStyle;rounded=0;orthogonalLoop=1;jettySize=auto;html=1;endArrow=classic;endFill=1;" edge="1" parent="1" source="4sP-tAjosWrq_yU9jU7--72" target="4sP-tAjosWrq_yU9jU7--53">
          <mxGeometry relative="1" as="geometry">
            <Array as="points">
              <mxPoint x="1338" y="560" />
              <mxPoint x="990" y="560" />
            </Array>
          </mxGeometry>
        </mxCell>
        <mxCell id="4sP-tAjosWrq_yU9jU7--87" style="rounded=0;orthogonalLoop=1;jettySize=auto;html=1;endArrow=none;endFill=0;dashed=1;exitX=0.755;exitY=0.759;exitDx=0;exitDy=0;exitPerimeter=0;" edge="1" parent="1" source="4sP-tAjosWrq_yU9jU7--72" target="4sP-tAjosWrq_yU9jU7--62">
          <mxGeometry relative="1" as="geometry" />
        </mxCell>
        <mxCell id="4sP-tAjosWrq_yU9jU7--72" value="Active&lt;br&gt;Link" style="strokeWidth=2;html=1;shape=mxgraph.flowchart.decision;whiteSpace=wrap;" vertex="1" parent="1">
          <mxGeometry x="1288" y="440" width="100" height="100" as="geometry" />
        </mxCell>
        <mxCell id="4sP-tAjosWrq_yU9jU7--80" style="edgeStyle=orthogonalEdgeStyle;rounded=0;orthogonalLoop=1;jettySize=auto;html=1;endArrow=classic;endFill=1;" edge="1" parent="1" source="4sP-tAjosWrq_yU9jU7--74" target="4sP-tAjosWrq_yU9jU7--78">
          <mxGeometry relative="1" as="geometry" />
        </mxCell>
        <mxCell id="4sP-tAjosWrq_yU9jU7--74" value="New&lt;br&gt;Password" style="shape=parallelogram;html=1;strokeWidth=2;perimeter=parallelogramPerimeter;whiteSpace=wrap;rounded=1;arcSize=21;size=0.1875;direction=east;" vertex="1" parent="1">
          <mxGeometry x="1118" y="460" width="100" height="60" as="geometry" />
        </mxCell>
        <mxCell id="4sP-tAjosWrq_yU9jU7--81" style="edgeStyle=orthogonalEdgeStyle;rounded=0;orthogonalLoop=1;jettySize=auto;html=1;endArrow=classic;endFill=1;" edge="1" parent="1" source="4sP-tAjosWrq_yU9jU7--78" target="4sP-tAjosWrq_yU9jU7--16">
          <mxGeometry relative="1" as="geometry">
            <mxPoint x="840" y="510" as="targetPoint" />
            <Array as="points">
              <mxPoint x="880" y="490" />
              <mxPoint x="880" y="410" />
              <mxPoint x="850" y="410" />
              <mxPoint x="850" y="300" />
            </Array>
          </mxGeometry>
        </mxCell>
        <mxCell id="4sP-tAjosWrq_yU9jU7--78" value="Update&lt;br&gt;Database" style="shape=cylinder3;whiteSpace=wrap;html=1;boundedLbl=1;backgroundOutline=1;size=4;" vertex="1" parent="1">
          <mxGeometry x="998" y="465" width="60" height="50" as="geometry" />
        </mxCell>
        <mxCell id="4sP-tAjosWrq_yU9jU7--85" value="No" style="text;html=1;align=center;verticalAlign=middle;resizable=0;points=[];autosize=1;strokeColor=none;fillColor=none;" vertex="1" parent="1">
          <mxGeometry x="1311" y="540" width="30" height="20" as="geometry" />
        </mxCell>
        <mxCell id="4sP-tAjosWrq_yU9jU7--86" value="Yes" style="text;html=1;align=center;verticalAlign=middle;resizable=0;points=[];autosize=1;strokeColor=none;fillColor=none;" vertex="1" parent="1">
          <mxGeometry x="1249" y="472" width="40" height="20" as="geometry" />
        </mxCell>
      </root>
    </mxGraphModel>
  </diagram>
</mxfile>
